<?xml version="1.0" encoding="utf-8"?>
<!-- Svg Vector Icons : http://www.onlinewebfonts.com/icon -->
<!DOCTYPE svg PUBLIC "-//W3C//DTD SVG 1.1//EN" "http://www.w3.org/Graphics/SVG/1.1/DTD/svg11.dtd">
<svg version="1.1" xmlns="http://www.w3.org/2000/svg" xmlns:xlink="http://www.w3.org/1999/xlink" x="0px" y="0px" viewBox="0 0 1000 1000" enable-background="new 0 0 1000 1000" xml:space="preserve">
<metadata> Svg Vector Icons : http://www.onlinewebfonts.com/icon </metadata>
<g><path d="M92.4,158.8c-9.6,0-19.3,4.6-19.3,4.6C22.6,191.4,10,262.1,10,287.9c0,25.7,13,126.4,250.4,170.4c0,0,13.5,4.1,4.8,25.7s-12.1,85.2-8.1,135.9c0,0-90.6,65-90.2,134c0.2,50.1,1.7,73.6,38.2,87.1c0,0,1.7,0.2,4.4,0.2c9.4,0,30.1-2.1,28.7-20.5c-2-23.7-22.3-23.7-25.7-23.7c-3.4,0-10.1-43.3,15.5-57.5c25.7-14.2,60.2-33.1,68.9-37.9c2.3-1.2,4.3-1.8,6-1.8c4.9,0,8,4.7,13,12.6c6.8,10.7,46.9,63.6,75.9,63.6c0.2,0,0.4,0,0.6,0c29-0.7,53.4-24.4,0.7-37.2c0,0-32.4-17.6-31.7-34.5c0.7-16.9,28.4-46,43.3-65c14.9-18.9,24.9-37.2,28.3-41.9c3.1-4.3,13.5-18,62.9-18c5.1,0,10.5,0.1,16.4,0.5c39.2,2.1,90.6,1.2,106.1,29.6c15.5,28.5,31.1,44.1,35.1,50.7c0,0,9.5,12.1,0.7,18.3c-8.8,6.1-50.7,37.9-31.1,57.5c4.7,4.7,10,6.6,15.6,6.6c17.8,0,38-19.4,47.4-30.2c12.1-14.2,21.7-34.5,17.6-54.8c-3-14.7-9.1-34-4.5-34c1.7,0,5,2.8,10.6,9.7c20.3,25.1,31.8,52.1,81.2,75.1c0,0,106.8,68.9,121.1,83.2c12.4,12.4,30.1,24.4,48.8,24.4c2.6,0,5.3-0.2,8-0.7c21.6-4.1,23.3-29,8.1-37.2c-17.6-9.5-117-64.2-152.1-116.3c0,0-12.8-24.4-3.4-44c9.5-19.6,27.8-58.8,27.8-73c0,0,2.4-2.4,6-2.4c2.5,0,5.6,1.2,9,5.1c6.2,7.2,26.7,15.9,41.8,15.9c4.9,0,9.2-0.9,12.3-3c12.8-8.9,8.1-16.2,12.1-27.8c4.1-11.4,16.2-29.7,16.9-38.5c0.7-8.8,0-35.8,0-35.8s19.6-2.7,29-13.5c5.4-6.2,9.3-7.5,11.5-7.5c0.5,0,1,0.1,1.4,0.2c-5.1-2.3-24.5-10.7-37.2-10.7c-1.8,0-3.4,0.2-4.8,0.5c0,0-2.7-8.8,10.1-16.2c0,0-10.2-4.8-22.3-4.8c-6,0-12.4,1.2-18.3,4.8c0,0-8.8-14.1-59.5-14.8c-0.4,0-0.8,0-1.2,0c-50.4,0-107,41.3-119.9,44c-0.6,0.1-1.4,0.2-2.3,0.2c-16.6,0-72.7-23.4-97.1-40.1c-24.1-16.4-61.8-38.9-122.1-38.9c-4.1,0-8.3,0.1-12.5,0.3c-67.6,3.4-125.1,25.7-163,39.9c0,0-14.3,2.3-37.9,2.3c-38.2,0-100.5-6.1-165.1-38c-79.6-44.6-75.1-86.2-75.1-86.2c-5-34,29-83.2,29-83.2s23.1-28.1,14-34.5C100.4,159.6,96.5,158.8,92.4,158.8L92.4,158.8z M988.8,437.4c0.8,0.4,1.2,0.6,1.2,0.6S989.7,437.6,988.8,437.4L988.8,437.4z"/></g>
</svg>